<svg width="17" height="17" viewBox="0 0 17 17" fill="none" xmlns="http://www.w3.org/2000/svg">
<rect width="17" height="17" rx="4" fill="#0240E0"/>
<path fill-rule="evenodd" clip-rule="evenodd" d="M8.82781 2C11.132 2 13 3.73371 13 5.87234V14.4468C13 14.7523 12.7332 15 12.404 15H8.17219C6.7544 15 5.50177 14.3436 4.74783 13.3404H7.27815C8.43027 13.3404 9.36424 12.4736 9.36424 11.4043V5.26383C9.36424 4.19451 8.43027 3.32766 7.27815 3.32766H4.65563C4.42659 3.32766 4.20618 3.36192 4 3.42522V2.55319C4 2.24767 4.26684 2 4.59603 2H8.82781ZM11.7483 12.5106C11.7483 12.9689 11.3481 13.3404 10.8543 13.3404C10.3605 13.3404 9.96026 12.9689 9.96026 12.5106C9.96026 12.0524 10.3605 11.6809 10.8543 11.6809C11.3481 11.6809 11.7483 12.0524 11.7483 12.5106Z" fill="white"/>
<path d="M6.86093 4.54468C6.95075 4.54468 7.038 4.55493 7.12138 4.57423L4.00253 11.1413C4.00086 11.1185 4 11.0955 4 11.0723V5.54043C4 4.99049 4.48033 4.54468 5.07285 4.54468H6.86093Z" fill="white"/>
<path d="M5.07285 12.0681C4.98355 12.0681 4.8968 12.058 4.81386 12.0389L7.93146 5.47441C7.933 5.49623 7.93377 5.51824 7.93377 5.54043V11.0723C7.93377 11.6223 7.45345 12.0681 6.86093 12.0681H5.07285Z" fill="white"/>
</svg>
